<?xml version="1.0" encoding="UTF-8" standalone="no"?>
<!-- Created with Inkscape (http://www.inkscape.org/) -->

<svg
   version="1.1"
   id="svg55"
   width="126"
   height="126"
   viewBox="0 0 126 126"
   sodipodi:docname="profile-icon.svg"
   inkscape:version="1.2.2 (b0a8486541, 2022-12-01)"
   xmlns:inkscape="http://www.inkscape.org/namespaces/inkscape"
   xmlns:sodipodi="http://sodipodi.sourceforge.net/DTD/sodipodi-0.dtd"
   xmlns="http://www.w3.org/2000/svg"
   xmlns:svg="http://www.w3.org/2000/svg">
  <defs
     id="defs59" />
  <sodipodi:namedview
     id="namedview57"
     pagecolor="#ffffff"
     bordercolor="#000000"
     borderopacity="0.25"
     inkscape:showpageshadow="2"
     inkscape:pageopacity="0.0"
     inkscape:pagecheckerboard="0"
     inkscape:deskcolor="#d1d1d1"
     showgrid="false"
     inkscape:zoom="2.7723075"
     inkscape:cx="96.129306"
     inkscape:cy="56.270813"
     inkscape:window-width="1366"
     inkscape:window-height="696"
     inkscape:window-x="0"
     inkscape:window-y="0"
     inkscape:window-maximized="1"
     inkscape:current-layer="g61" />
  <g
     inkscape:groupmode="layer"
     inkscape:label="Image"
     id="g61">
    <rect
       style="fill:#2d8e44;fill-opacity:1;stroke:none;stroke-width:2.16295"
       id="rect6289"
       width="126.00339"
       height="26.789019"
       x="-0.003673922"
       y="0.0033581299" />
    <rect
       style="fill:none;fill-opacity:1;stroke:#2d8e44;stroke-width:4.25203;stroke-dasharray:none;stroke-opacity:1"
       id="rect6291"
       width="27.250484"
       height="27.314901"
       x="10.837559"
       y="38.260548" />
    <rect
       style="fill:#2d8e44;fill-opacity:1;stroke:none"
       id="rect6293"
       width="70.07811"
       height="5.2361894"
       x="48.617012"
       y="43.47974" />
    <rect
       style="fill:#2d8e44;fill-opacity:1;stroke:none"
       id="rect6295"
       width="35.104488"
       height="6.0711575"
       x="49.041458"
       y="53.075256" />
    <rect
       style="fill:#2d8e44;fill-opacity:1;stroke:none"
       id="rect6299"
       width="63.909313"
       height="5.3655334"
       x="49.743065"
       y="89.158043" />
    <rect
       style="fill:#2d8e44;fill-opacity:1;stroke:none"
       id="rect6301"
       width="32.820084"
       height="5.4472566"
       x="49.989624"
       y="99.321899" />
    <rect
       style="fill:none;fill-opacity:1;stroke:#2d8e44;stroke-width:4.25203;stroke-dasharray:none;stroke-opacity:1"
       id="rect6852"
       width="27.250484"
       height="27.314901"
       x="12.161084"
       y="84.897202" />
    <path
       style="fill:none;fill-opacity:1;stroke:#2d8e44;stroke-width:5;stroke-dasharray:none;stroke-opacity:1"
       d="m 13.064819,52.825846 c 0.991035,2.072075 2.94748,2.86333 4.483582,4.391589 1.406785,1.399602 4.337429,5.418152 5.255608,7.229949 0.424577,0.837797 0.889515,1.573819 1.353687,2.378423 0.139134,0.241176 -0.06233,0.70135 0.0894,0.986713 0.0389,0.07317 0.166929,0.014 0.248605,0 1.341611,-0.230032 1.154851,-7.009378 1.662418,-8.423315 1.099062,-3.061672 2.245622,-6.204966 3.698404,-9.127806 1.687777,-3.395622 3.820561,-6.613592 5.644916,-9.941176 1.068142,-1.948266 2.927282,-3.541328 4.37969,-5.196527 1.696003,-1.932807 3.690071,-4.950215 6.042625,-6.179179"
       id="path6971" />
  </g>
</svg>
